<!-- Generator: Adobe Illustrator 22.0.1, SVG Export Plug-In  -->
<svg version="1.1"
	 xmlns="http://www.w3.org/2000/svg" xmlns:xlink="http://www.w3.org/1999/xlink" xmlns:a="http://ns.adobe.com/AdobeSVGViewerExtensions/3.0/"
	 x="0px" y="0px" width="1866.4px" height="554.9px" viewBox="0 0 1866.4 554.9" enable-background="new 0 0 1866.4 554.9"
	 xml:space="preserve">
<defs>
</defs>
<path fill-rule="evenodd" clip-rule="evenodd" fill="#6B6B6B" d="M265.8,0l550.6,554.8H617L284.8,208.7L128.2,554.8H0L265.8,0z"/>
<path fill-rule="evenodd" clip-rule="evenodd" fill="#9B9B9B" d="M275.7,425.8l-54.2,129.1h176.6L275.7,425.8z"/>
<path fill-rule="evenodd" clip-rule="evenodd" fill="#262869" d="M314.3,0l560.1,0c26,0,199.3,16.5,199.3,222.9
	c0,159.3-137.6,208.7-137.6,208.7l118.7,123.3H874.4L622.9,308.2h232.6c0,0,75.9-1.9,75.9-85.4c0-83.5-75.9-85.4-75.9-85.4H456.7
	L314.3,0z"/>
<path fill-rule="evenodd" clip-rule="evenodd" fill="#262869" d="M1164.4,277.4l276.9,277.4h-94.9l-182.7-173.1l-146.8,173.1h-86.4
	L1164.4,277.4z"/>
<path fill-rule="evenodd" clip-rule="evenodd" fill="#9B9B9B" d="M1166.6,480.3l-70.2,74.5H1242L1166.6,480.3z"/>
<path fill="#262869" d="M1366.2,280.1h73.5v68.7h-73.5V280.1z M1366.2,382.4h73.5v171.5h-73.5V382.4z"/>
<path fill-rule="evenodd" clip-rule="evenodd" fill="#262869" d="M1474.5,280.1l192.5,0c64.5,0,199.3,22,199.3,222.9
	c0,19.6,0,51.8,0,51.8h-141.4h-250.8V426.8h64.3v80H1724c0,0-0.1-0.9-0.1-3.8c0-136.4-42.8-151-75.9-154.4l-173.5,0L1474.5,280.1z"
	/>
</svg>
